<mxfile host="app.diagrams.net" modified="2024-05-08T23:57:50.611Z" agent="Mozilla/5.0 (Windows NT 10.0; Win64; x64) AppleWebKit/537.36 (KHTML, like Gecko) Chrome/124.0.0.0 Safari/537.36 Edg/124.0.0.0" etag="Zo9avJUtF5cB0OglcyO1" version="24.3.1" type="device">
  <diagram name="Página-1" id="HO-6DLzjviTl0-a7OAtY">
    <mxGraphModel dx="2458" dy="884" grid="1" gridSize="10" guides="1" tooltips="1" connect="1" arrows="1" fold="1" page="1" pageScale="1" pageWidth="827" pageHeight="1169" math="0" shadow="0">
      <root>
        <mxCell id="0" />
        <mxCell id="1" parent="0" />
        <mxCell id="D2vJ71rPX1IRPK-Nk4Y--1" value="Requisitos&lt;div&gt;de produto&lt;/div&gt;" style="rounded=0;whiteSpace=wrap;html=1;" vertex="1" parent="1">
          <mxGeometry x="120" y="80" width="120" height="80" as="geometry" />
        </mxCell>
        <mxCell id="D2vJ71rPX1IRPK-Nk4Y--2" value="Requisitos de eficiência" style="rounded=0;whiteSpace=wrap;html=1;" vertex="1" parent="1">
          <mxGeometry x="40" y="260" width="120" height="80" as="geometry" />
        </mxCell>
        <mxCell id="D2vJ71rPX1IRPK-Nk4Y--3" value="Requisitos de confiabilidade" style="rounded=0;whiteSpace=wrap;html=1;" vertex="1" parent="1">
          <mxGeometry x="200" y="260" width="120" height="80" as="geometry" />
        </mxCell>
        <mxCell id="D2vJ71rPX1IRPK-Nk4Y--4" value="Requisitos de portabilidade" style="rounded=0;whiteSpace=wrap;html=1;" vertex="1" parent="1">
          <mxGeometry x="360" y="260" width="120" height="80" as="geometry" />
        </mxCell>
        <mxCell id="D2vJ71rPX1IRPK-Nk4Y--5" value="Requisitos de facilidade de uso" style="rounded=0;whiteSpace=wrap;html=1;" vertex="1" parent="1">
          <mxGeometry x="-120" y="260" width="120" height="80" as="geometry" />
        </mxCell>
        <mxCell id="D2vJ71rPX1IRPK-Nk4Y--6" style="rounded=0;orthogonalLoop=1;jettySize=auto;html=1;endArrow=none;endFill=0;strokeWidth=3;exitX=0.5;exitY=1;exitDx=0;exitDy=0;edgeStyle=orthogonalEdgeStyle;" edge="1" parent="1" source="D2vJ71rPX1IRPK-Nk4Y--1" target="D2vJ71rPX1IRPK-Nk4Y--2">
          <mxGeometry relative="1" as="geometry">
            <mxPoint x="480" y="410" as="sourcePoint" />
            <mxPoint x="200" y="490" as="targetPoint" />
          </mxGeometry>
        </mxCell>
        <mxCell id="D2vJ71rPX1IRPK-Nk4Y--7" style="rounded=0;orthogonalLoop=1;jettySize=auto;html=1;endArrow=none;endFill=0;strokeWidth=3;exitX=0.5;exitY=1;exitDx=0;exitDy=0;edgeStyle=orthogonalEdgeStyle;" edge="1" parent="1" source="D2vJ71rPX1IRPK-Nk4Y--1" target="D2vJ71rPX1IRPK-Nk4Y--5">
          <mxGeometry relative="1" as="geometry">
            <mxPoint x="160" y="100" as="sourcePoint" />
            <mxPoint x="-120" y="180" as="targetPoint" />
          </mxGeometry>
        </mxCell>
        <mxCell id="D2vJ71rPX1IRPK-Nk4Y--8" style="rounded=0;orthogonalLoop=1;jettySize=auto;html=1;endArrow=none;endFill=0;strokeWidth=3;exitX=0.5;exitY=1;exitDx=0;exitDy=0;edgeStyle=orthogonalEdgeStyle;" edge="1" parent="1" source="D2vJ71rPX1IRPK-Nk4Y--1" target="D2vJ71rPX1IRPK-Nk4Y--3">
          <mxGeometry relative="1" as="geometry">
            <mxPoint x="690" y="30" as="sourcePoint" />
            <mxPoint x="410" y="110" as="targetPoint" />
          </mxGeometry>
        </mxCell>
        <mxCell id="D2vJ71rPX1IRPK-Nk4Y--9" style="rounded=0;orthogonalLoop=1;jettySize=auto;html=1;endArrow=none;endFill=0;strokeWidth=3;exitX=0.5;exitY=1;exitDx=0;exitDy=0;entryX=0.5;entryY=0;entryDx=0;entryDy=0;edgeStyle=orthogonalEdgeStyle;" edge="1" parent="1" source="D2vJ71rPX1IRPK-Nk4Y--1" target="D2vJ71rPX1IRPK-Nk4Y--4">
          <mxGeometry relative="1" as="geometry">
            <mxPoint x="700" y="40" as="sourcePoint" />
            <mxPoint x="420" y="120" as="targetPoint" />
          </mxGeometry>
        </mxCell>
        <mxCell id="D2vJ71rPX1IRPK-Nk4Y--10" value="Requisitos de desempenho&amp;nbsp;" style="rounded=0;whiteSpace=wrap;html=1;" vertex="1" parent="1">
          <mxGeometry x="-40" y="480" width="120" height="80" as="geometry" />
        </mxCell>
        <mxCell id="D2vJ71rPX1IRPK-Nk4Y--11" value="Requisitos&amp;nbsp;&lt;div&gt;de espaço&lt;/div&gt;" style="rounded=0;whiteSpace=wrap;html=1;" vertex="1" parent="1">
          <mxGeometry x="120" y="480" width="120" height="80" as="geometry" />
        </mxCell>
        <mxCell id="D2vJ71rPX1IRPK-Nk4Y--12" style="rounded=0;orthogonalLoop=1;jettySize=auto;html=1;endArrow=none;endFill=0;strokeWidth=3;exitX=0.5;exitY=1;exitDx=0;exitDy=0;entryX=0.5;entryY=0;entryDx=0;entryDy=0;edgeStyle=orthogonalEdgeStyle;" edge="1" parent="1" source="D2vJ71rPX1IRPK-Nk4Y--2" target="D2vJ71rPX1IRPK-Nk4Y--10">
          <mxGeometry relative="1" as="geometry">
            <mxPoint x="750" y="10" as="sourcePoint" />
            <mxPoint x="190" y="90" as="targetPoint" />
          </mxGeometry>
        </mxCell>
        <mxCell id="D2vJ71rPX1IRPK-Nk4Y--13" style="rounded=0;orthogonalLoop=1;jettySize=auto;html=1;endArrow=none;endFill=0;strokeWidth=3;edgeStyle=orthogonalEdgeStyle;" edge="1" parent="1" source="D2vJ71rPX1IRPK-Nk4Y--2" target="D2vJ71rPX1IRPK-Nk4Y--11">
          <mxGeometry relative="1" as="geometry">
            <mxPoint x="760" y="20" as="sourcePoint" />
            <mxPoint x="200" y="100" as="targetPoint" />
          </mxGeometry>
        </mxCell>
      </root>
    </mxGraphModel>
  </diagram>
</mxfile>
